<?xml version="1.0" encoding="UTF-8"?>
<svg xmlns="http://www.w3.org/2000/svg" xmlns:xlink="http://www.w3.org/1999/xlink" width="80px" height="70px" viewBox="0 0 80 70" version="1.1">
<g id="surface1">
<path style=" stroke:none;fill-rule:nonzero;fill:rgb(90.980393%,34.901962%,51.764709%);fill-opacity:1;" d="M 2.5 11.359375 C 6.578125 9.039062 10.664062 6.730469 14.730469 4.402344 C 14.722656 20.871094 14.746094 37.339844 14.722656 53.804688 C 13.125 54.738281 11.496094 55.628906 9.898438 56.5625 C 7.84375 57.683594 5.808594 58.84375 3.796875 60.027344 C 3.398438 60.269531 2.972656 60.46875 2.523438 60.632812 C 2.503906 44.210938 2.550781 27.785156 2.5 11.359375 Z M 2.5 11.359375 "/>
<path style=" stroke:none;fill-rule:nonzero;fill:rgb(89.803922%,6.27451%,31.37255%);fill-opacity:1;" d="M 14.730469 4.402344 C 32.722656 4.402344 50.71875 4.398438 68.710938 4.402344 C 70.589844 4.425781 72.398438 5.71875 72.550781 7.398438 C 72.625 10.347656 72.503906 13.300781 72.609375 16.253906 C 72.652344 27.546875 72.617188 38.839844 72.628906 50.128906 C 72.601562 51.367188 72.695312 52.601562 72.582031 53.835938 C 66.554688 53.890625 60.523438 53.84375 54.496094 53.859375 C 41.953125 53.859375 29.410156 53.859375 16.867188 53.859375 C 16.152344 53.871094 15.433594 53.875 14.722656 53.804688 C 14.746094 37.339844 14.722656 20.871094 14.730469 4.402344 M 39.449219 14.671875 C 38.253906 17.695312 37.300781 20.792969 36.1875 23.835938 C 34.113281 29.78125 32.035156 35.726562 29.957031 41.671875 C 29.765625 42.144531 29.605469 42.632812 29.511719 43.128906 C 31.476562 43.15625 33.445312 43.167969 35.410156 43.125 C 36.164062 40.835938 36.929688 38.554688 37.660156 36.261719 C 37.730469 36.058594 37.824219 35.863281 37.914062 35.667969 C 41.640625 35.675781 45.371094 35.625 49.097656 35.695312 C 49.992188 38.179688 50.84375 40.671875 51.792969 43.140625 C 53.804688 43.148438 55.8125 43.160156 57.824219 43.128906 C 56.628906 39.632812 55.273438 36.179688 54.035156 32.695312 C 51.800781 26.699219 49.648438 20.675781 47.398438 14.679688 C 44.75 14.625 42.097656 14.636719 39.449219 14.671875 Z M 39.449219 14.671875 "/>
<path style=" stroke:none;fill-rule:nonzero;fill:rgb(89.803922%,6.27451%,31.37255%);fill-opacity:1;" d="M 43.347656 18.371094 C 43.730469 19.171875 43.882812 20.042969 44.191406 20.867188 C 45.328125 24.40625 46.53125 27.933594 47.621094 31.488281 C 44.824219 31.519531 42.03125 31.519531 39.234375 31.488281 C 40.523438 27.097656 42.03125 22.753906 43.347656 18.371094 Z M 43.347656 18.371094 "/>
<path style=" stroke:none;fill-rule:nonzero;fill:rgb(100%,100%,100%);fill-opacity:1;" d="M 39.449219 14.671875 C 42.097656 14.636719 44.75 14.625 47.398438 14.679688 C 49.648438 20.675781 51.800781 26.699219 54.035156 32.695312 C 55.273438 36.179688 56.628906 39.632812 57.824219 43.128906 C 55.8125 43.160156 53.804688 43.148438 51.792969 43.140625 C 50.84375 40.671875 49.992188 38.179688 49.097656 35.695312 C 45.371094 35.625 41.640625 35.675781 37.914062 35.667969 C 37.824219 35.863281 37.730469 36.058594 37.660156 36.261719 C 36.929688 38.554688 36.164062 40.835938 35.410156 43.125 C 33.445312 43.167969 31.476562 43.15625 29.511719 43.128906 C 29.605469 42.632812 29.765625 42.144531 29.957031 41.671875 C 32.035156 35.726562 34.113281 29.78125 36.1875 23.835938 C 37.300781 20.792969 38.253906 17.695312 39.449219 14.671875 M 43.347656 18.371094 C 42.03125 22.753906 40.523438 27.097656 39.234375 31.488281 C 42.03125 31.523438 44.828125 31.519531 47.621094 31.488281 C 46.53125 27.933594 45.328125 24.40625 44.191406 20.867188 C 43.882812 20.042969 43.730469 19.171875 43.347656 18.371094 Z M 43.347656 18.371094 "/>
<path style=" stroke:none;fill-rule:nonzero;fill:rgb(46.666667%,3.137255%,16.078432%);fill-opacity:1;" d="M 72.609375 16.253906 C 74.21875 16.082031 75.84375 16.167969 77.460938 16.195312 C 77.539062 19.910156 77.46875 23.632812 77.492188 27.347656 C 77.492188 39.210938 77.496094 51.074219 77.492188 62.933594 C 77.484375 63.816406 77.527344 64.699219 77.460938 65.582031 C 56.550781 65.613281 35.640625 65.582031 14.730469 65.597656 C 13.488281 65.59375 12.128906 65.496094 11.164062 64.730469 C 10.441406 64.136719 9.882812 63.320312 9.902344 62.429688 C 9.898438 60.472656 9.902344 58.519531 9.898438 56.5625 C 11.496094 55.628906 13.125 54.738281 14.722656 53.804688 C 15.433594 53.875 16.152344 53.871094 16.867188 53.859375 C 29.410156 53.859375 41.953125 53.859375 54.496094 53.859375 C 60.523438 53.84375 66.554688 53.890625 72.582031 53.835938 C 72.695312 52.601562 72.601562 51.367188 72.628906 50.128906 C 72.617188 38.839844 72.652344 27.546875 72.609375 16.253906 Z M 72.609375 16.253906 "/>
</g>
</svg>
