<?xml version="1.0" encoding="UTF-8"?>
<svg xmlns="http://www.w3.org/2000/svg" xmlns:xlink="http://www.w3.org/1999/xlink" width="80px" height="70px" viewBox="0 0 80 70" version="1.1">
<g id="surface1">
<path style=" stroke:none;fill-rule:nonzero;fill:rgb(99.215686%,83.529413%,0%);fill-opacity:1;" d="M 18.753906 6.507812 C 19.945312 6.398438 21.140625 6.308594 22.335938 6.230469 C 23.296875 6.164062 23.296875 6.164062 24.277344 6.097656 C 35.269531 5.5 46.601562 5.171875 55.976562 10.847656 C 63.09375 16.367188 65.789062 21.640625 66.597656 29.980469 C 68.324219 57.328125 68.324219 57.328125 64 63 C 61.996094 63.265625 61.996094 63.265625 59.4375 63.273438 C 58.480469 63.277344 57.527344 63.285156 56.542969 63.292969 C 55.503906 63.289062 54.46875 63.285156 53.398438 63.277344 C 52.328125 63.28125 51.261719 63.28125 50.191406 63.285156 C 47.945312 63.289062 45.703125 63.285156 43.460938 63.273438 C 40.582031 63.261719 37.703125 63.269531 34.824219 63.28125 C 32.613281 63.289062 30.402344 63.285156 28.195312 63.28125 C 26.617188 63.277344 25.039062 63.285156 23.457031 63.292969 C 22.023438 63.28125 22.023438 63.28125 20.5625 63.273438 C 19.71875 63.269531 18.875 63.269531 18.003906 63.265625 C 17.34375 63.179688 16.679688 63.089844 16 63 C 14.011719 60.394531 14.199219 59.054688 14.191406 55.941406 C 14.191406 55.4375 14.1875 54.933594 14.183594 54.417969 C 14.175781 52.757812 14.183594 51.097656 14.1875 49.4375 C 14.1875 48.285156 14.183594 47.128906 14.183594 45.976562 C 14.179688 43.558594 14.183594 41.144531 14.191406 38.726562 C 14.199219 35.625 14.195312 32.527344 14.1875 29.425781 C 14.179688 27.042969 14.183594 24.664062 14.1875 22.28125 C 14.1875 21.136719 14.1875 19.996094 14.183594 18.851562 C 14.179688 17.253906 14.183594 15.65625 14.191406 14.058594 C 14.195312 13.152344 14.195312 12.242188 14.195312 11.304688 C 14.492188 8.089844 15.089844 7.164062 18.753906 6.507812 Z M 18.753906 6.507812 "/>
<path style=" stroke:none;fill-rule:nonzero;fill:rgb(91.764706%,50.588238%,0%);fill-opacity:1;" d="M 46.398438 7.699219 C 49.148438 8.738281 50.949219 10.101562 53.0625 11.945312 C 54.023438 12.78125 54.023438 12.78125 55 13.632812 C 55.660156 14.214844 56.320312 14.800781 57 15.398438 C 57.671875 15.984375 58.34375 16.566406 59.039062 17.167969 C 59.671875 17.722656 60.308594 18.28125 60.960938 18.855469 C 61.546875 19.367188 62.128906 19.878906 62.730469 20.40625 C 64 21.699219 64 21.699219 64 23.101562 C 61.367188 23.140625 58.734375 23.164062 56.101562 23.1875 C 54.976562 23.207031 54.976562 23.207031 53.828125 23.222656 C 52.753906 23.230469 52.753906 23.230469 51.65625 23.238281 C 50.996094 23.242188 50.332031 23.25 49.648438 23.257812 C 48 23.101562 48 23.101562 46.398438 21.699219 C 46.21875 20.257812 46.21875 20.257812 46.242188 18.5 C 46.25 17.875 46.253906 17.246094 46.257812 16.601562 C 46.273438 15.945312 46.285156 15.289062 46.300781 14.613281 C 46.308594 13.949219 46.3125 13.289062 46.320312 12.609375 C 46.339844 10.972656 46.367188 9.335938 46.398438 7.699219 Z M 46.398438 7.699219 "/>
<path style=" stroke:none;fill-rule:nonzero;fill:rgb(29.019609%,27.843139%,21.568628%);fill-opacity:1;" d="M 18.398438 32.199219 C 21.894531 32.0625 24.707031 31.960938 28.050781 32.855469 C 29.863281 34.546875 29.914062 35.148438 30.050781 37.40625 C 29.890625 39.472656 29.632812 40.542969 28.5 42.394531 C 25.160156 43.992188 22.167969 43.574219 18.398438 43.398438 C 18.398438 39.703125 18.398438 36.007812 18.398438 32.199219 Z M 18.398438 32.199219 "/>
<path style=" stroke:none;fill-rule:nonzero;fill:rgb(31.764707%,29.803923%,20.784314%);fill-opacity:1;" d="M 31.199219 32.199219 C 32.257812 32.199219 33.3125 32.199219 34.398438 32.199219 C 34.929688 34.046875 35.457031 35.894531 36 37.800781 C 36.265625 37.800781 36.527344 37.800781 36.800781 37.800781 C 37.328125 35.953125 37.855469 34.105469 38.398438 32.199219 C 39.71875 32.199219 41.039062 32.199219 42.398438 32.199219 C 42.929688 34.046875 43.457031 35.894531 44 37.800781 C 44.792969 35.953125 45.585938 34.105469 46.398438 32.199219 C 47.191406 32.199219 47.984375 32.199219 48.800781 32.199219 C 48.550781 33.542969 48.300781 34.882812 48.050781 36.226562 C 47.839844 37.347656 47.839844 37.347656 47.628906 38.488281 C 47.289062 40.15625 46.902344 41.769531 46.398438 43.398438 C 45.078125 43.398438 43.761719 43.398438 42.398438 43.398438 C 41.609375 41.550781 40.816406 39.703125 40 37.800781 C 39.207031 39.648438 38.414062 41.496094 37.601562 43.398438 C 36.542969 43.398438 35.488281 43.398438 34.398438 43.398438 C 32.609375 39.585938 31.621094 36.308594 31.199219 32.199219 Z M 31.199219 32.199219 "/>
<path style=" stroke:none;fill-rule:nonzero;fill:rgb(28.235295%,27.058825%,21.960784%);fill-opacity:1;" d="M 60.800781 32.199219 C 60.535156 33.125 60.273438 34.046875 60 35 C 59.242188 34.972656 58.480469 34.941406 57.699219 34.914062 C 55.117188 34.753906 55.117188 34.753906 53.601562 36.398438 C 53.464844 38.207031 53.464844 38.207031 53.601562 39.898438 C 55.183594 40.363281 56.769531 40.824219 58.398438 41.300781 C 58.398438 40.605469 58.398438 39.914062 58.398438 39.199219 C 57.609375 39.199219 56.816406 39.199219 56 39.199219 C 56 38.507812 56 37.8125 56 37.101562 C 57.847656 37.101562 59.695312 37.101562 61.601562 37.101562 C 61.679688 41.40625 61.679688 41.40625 61.601562 42.699219 C 60.273438 43.859375 58.71875 43.546875 56.898438 43.574219 C 56.191406 43.59375 55.484375 43.609375 54.757812 43.628906 C 52.800781 43.398438 52.800781 43.398438 51.367188 42.53125 C 49.558594 40.226562 49.925781 37.675781 50.398438 35 C 52.753906 31.328125 56.511719 31.910156 60.800781 32.199219 Z M 60.800781 32.199219 "/>
<path style=" stroke:none;fill-rule:nonzero;fill:rgb(96.078432%,81.176472%,0.784314%);fill-opacity:1;" d="M 21.601562 34.300781 C 25.398438 34.824219 25.398438 34.824219 27.199219 36.398438 C 26.746094 40.296875 26.746094 40.296875 25.601562 41.300781 C 24.28125 41.300781 22.960938 41.300781 21.601562 41.300781 C 21.601562 38.988281 21.601562 36.679688 21.601562 34.300781 Z M 21.601562 34.300781 "/>
</g>
</svg>
