<?xml version="1.0" encoding="UTF-8"?>
<svg xmlns="http://www.w3.org/2000/svg" xmlns:xlink="http://www.w3.org/1999/xlink" width="80px" height="70px" viewBox="0 0 80 70" version="1.1">
<g id="surface1">
<path style=" stroke:none;fill-rule:nonzero;fill:rgb(86.666667%,17.254902%,0%);fill-opacity:1;" d="M 40 64.167969 L 8.332031 52.5 L 8.332031 14.582031 L 40 23.332031 Z M 40 64.167969 "/>
<path style=" stroke:none;fill-rule:nonzero;fill:rgb(64.705884%,12.54902%,1.960784%);fill-opacity:1;" d="M 40 64.167969 L 71.667969 52.5 L 71.667969 14.582031 L 40 23.332031 Z M 40 64.167969 "/>
<path style=" stroke:none;fill-rule:nonzero;fill:rgb(100%,23.921569%,0%);fill-opacity:1;" d="M 8.332031 14.582031 L 40 5.832031 L 71.667969 14.582031 L 40 23.332031 Z M 8.332031 14.582031 "/>
<path style=" stroke:none;fill-rule:nonzero;fill:rgb(100%,100%,100%);fill-opacity:1;" d="M 60.898438 42.605469 L 63.636719 24.253906 L 66.667969 23.332031 L 62.601562 47.742188 L 59.625 48.816406 L 56.160156 32.882812 L 52.5625 51.367188 L 49.421875 52.5 L 45 29.917969 L 48.3125 28.914062 L 51.25 45.917969 L 54.808594 26.9375 L 57.480469 26.125 Z M 28.089844 45.359375 C 28.089844 44.886719 28.03125 44.445312 27.910156 44.039062 C 27.789062 43.632812 27.566406 43.222656 27.246094 42.8125 C 26.921875 42.402344 26.480469 41.972656 25.921875 41.515625 C 25.363281 41.0625 24.644531 40.546875 23.773438 39.972656 C 22.816406 39.355469 21.941406 38.714844 21.144531 38.050781 C 20.347656 37.390625 19.660156 36.691406 19.089844 35.964844 C 18.519531 35.234375 18.074219 34.464844 17.75 33.644531 C 17.429688 32.828125 17.269531 31.953125 17.269531 31.019531 C 17.269531 30.09375 17.4375 29.296875 17.773438 28.613281 C 18.105469 27.929688 18.578125 27.390625 19.191406 26.992188 C 19.804688 26.59375 20.539062 26.355469 21.402344 26.277344 C 22.265625 26.195312 23.226562 26.300781 24.28125 26.589844 C 25.414062 26.902344 26.441406 27.371094 27.351562 28.003906 C 28.265625 28.636719 29.042969 29.371094 29.675781 30.203125 C 30.3125 31.039062 30.800781 31.9375 31.144531 32.902344 C 31.484375 33.871094 31.65625 34.84375 31.65625 35.828125 L 28.09375 34.796875 C 28.09375 34.230469 28.015625 33.683594 27.863281 33.164062 C 27.707031 32.640625 27.472656 32.160156 27.15625 31.722656 C 26.839844 31.285156 26.4375 30.902344 25.957031 30.574219 C 25.476562 30.246094 24.910156 29.992188 24.253906 29.808594 C 23.636719 29.632812 23.105469 29.5625 22.660156 29.597656 C 22.210938 29.628906 21.839844 29.746094 21.546875 29.949219 C 21.25 30.152344 21.03125 30.429688 20.890625 30.78125 C 20.75 31.128906 20.683594 31.53125 20.683594 31.988281 C 20.683594 32.84375 21.027344 33.65625 21.722656 34.429688 C 22.421875 35.207031 23.488281 36.054688 24.933594 36.96875 C 26.066406 37.691406 27.058594 38.414062 27.898438 39.136719 C 28.738281 39.859375 29.441406 40.605469 30 41.371094 C 30.5625 42.140625 30.980469 42.945312 31.257812 43.777344 C 31.527344 44.613281 31.667969 45.5 31.667969 46.441406 C 31.667969 47.4375 31.492188 48.277344 31.148438 48.960938 C 30.800781 49.644531 30.308594 50.160156 29.671875 50.511719 C 29.039062 50.859375 28.273438 51.035156 27.375 51.039062 C 26.484375 51.042969 25.492188 50.867188 24.402344 50.515625 C 23.4375 50.199219 22.492188 49.738281 21.5625 49.136719 C 20.636719 48.535156 19.8125 47.8125 19.082031 46.972656 C 18.355469 46.132812 17.769531 45.191406 17.328125 44.148438 C 16.886719 43.109375 16.667969 41.984375 16.667969 40.769531 L 20.066406 41.824219 C 20.066406 42.550781 20.179688 43.210938 20.398438 43.800781 C 20.621094 44.394531 20.925781 44.917969 21.308594 45.375 C 21.695312 45.828125 22.152344 46.21875 22.683594 46.539062 C 23.214844 46.863281 23.785156 47.125 24.402344 47.320312 C 25.621094 47.707031 26.542969 47.714844 27.160156 47.339844 C 27.78125 46.964844 28.089844 46.300781 28.089844 45.359375 Z M 28.089844 45.359375 "/>
</g>
</svg>
