<?xml version="1.0" encoding="UTF-8"?>
<svg xmlns="http://www.w3.org/2000/svg" xmlns:xlink="http://www.w3.org/1999/xlink" width="80px" height="70px" viewBox="0 0 80 70" version="1.1">
<defs>
<filter id="alpha" filterUnits="objectBoundingBox" x="0%" y="0%" width="100%" height="100%">
  <feColorMatrix type="matrix" in="SourceGraphic" values="0 0 0 0 1 0 0 0 0 1 0 0 0 0 1 0 0 0 1 0"/>
</filter>
<mask id="mask0">
  <g filter="url(#alpha)">
<rect x="0" y="0" width="80" height="70" style="fill:rgb(0%,0%,0%);fill-opacity:0.101961;stroke:none;"/>
  </g>
</mask>
<clipPath id="clip1">
  <rect x="0" y="0" width="80" height="70"/>
</clipPath>
<g id="surface5" clip-path="url(#clip1)">
<path style=" stroke:none;fill-rule:nonzero;fill:rgb(0%,0%,0%);fill-opacity:1;" d="M 41.242188 15.464844 L 18.605469 15.464844 L 18.605469 56.164062 L 41.242188 56.164062 C 43.121094 56.15625 44.644531 54.824219 44.652344 53.179688 L 44.652344 18.449219 C 44.644531 16.804688 43.121094 15.472656 41.242188 15.464844 Z M 41.242188 15.464844 "/>
</g>
<mask id="mask1">
  <g filter="url(#alpha)">
<rect x="0" y="0" width="80" height="70" style="fill:rgb(0%,0%,0%);fill-opacity:0.2;stroke:none;"/>
  </g>
</mask>
<clipPath id="clip2">
  <rect x="0" y="0" width="80" height="70"/>
</clipPath>
<g id="surface8" clip-path="url(#clip2)">
<path style=" stroke:none;fill-rule:nonzero;fill:rgb(0%,0%,0%);fill-opacity:1;" d="M 39.382812 17.09375 L 18.605469 17.09375 L 18.605469 57.789062 L 39.382812 57.789062 C 41.261719 57.785156 42.785156 56.453125 42.792969 54.804688 L 42.792969 20.078125 C 42.785156 18.429688 41.261719 17.097656 39.382812 17.09375 Z M 39.382812 17.09375 "/>
</g>
<mask id="mask2">
  <g filter="url(#alpha)">
<rect x="0" y="0" width="80" height="70" style="fill:rgb(0%,0%,0%);fill-opacity:0.2;stroke:none;"/>
  </g>
</mask>
<clipPath id="clip3">
  <rect x="0" y="0" width="80" height="70"/>
</clipPath>
<g id="surface11" clip-path="url(#clip3)">
<path style=" stroke:none;fill-rule:nonzero;fill:rgb(0%,0%,0%);fill-opacity:1;" d="M 39.382812 17.09375 L 18.605469 17.09375 L 18.605469 54.535156 L 39.382812 54.535156 C 41.261719 54.527344 42.785156 53.195312 42.792969 51.550781 L 42.792969 20.078125 C 42.785156 18.429688 41.261719 17.097656 39.382812 17.09375 Z M 39.382812 17.09375 "/>
</g>
<mask id="mask3">
  <g filter="url(#alpha)">
<rect x="0" y="0" width="80" height="70" style="fill:rgb(0%,0%,0%);fill-opacity:0.2;stroke:none;"/>
  </g>
</mask>
<clipPath id="clip4">
  <rect x="0" y="0" width="80" height="70"/>
</clipPath>
<g id="surface14" clip-path="url(#clip4)">
<path style=" stroke:none;fill-rule:nonzero;fill:rgb(0%,0%,0%);fill-opacity:1;" d="M 37.519531 17.09375 L 18.605469 17.09375 L 18.605469 54.535156 L 37.519531 54.535156 C 39.402344 54.527344 40.925781 53.195312 40.929688 51.550781 L 40.929688 20.078125 C 40.921875 18.429688 39.402344 17.097656 37.519531 17.09375 Z M 37.519531 17.09375 "/>
</g>
<linearGradient id="linear0" gradientUnits="userSpaceOnUse" x1="45.5065" y1="-1464.030762" x2="216.446701" y2="-1167.969482" gradientTransform="matrix(0.15625,0,0,0.136719,0,214.921875)">
<stop offset="0" style="stop-color:rgb(9.411765%,53.333333%,30.980392%);stop-opacity:1;"/>
<stop offset="0.5" style="stop-color:rgb(6.666667%,49.411765%,26.27451%);stop-opacity:1;"/>
<stop offset="1" style="stop-color:rgb(4.313725%,40%,19.215686%);stop-opacity:1;"/>
</linearGradient>
</defs>
<g id="surface1">
<path style=" stroke:none;fill-rule:nonzero;fill:rgb(9.411765%,36.078432%,21.568628%);fill-opacity:1;" d="M 50.234375 33.371094 L 18.605469 28.488281 L 18.605469 64.574219 C 18.605469 66.222656 20.132812 67.558594 22.015625 67.558594 L 76.589844 67.558594 C 78.472656 67.558594 80 66.222656 80 64.574219 L 80 51.277344 Z M 50.234375 33.371094 "/>
<path style=" stroke:none;fill-rule:nonzero;fill:rgb(12.941177%,63.921571%,40.000001%);fill-opacity:1;" d="M 50.234375 2.441406 L 22.015625 2.441406 C 20.132812 2.441406 18.605469 3.777344 18.605469 5.425781 L 18.605469 18.722656 L 50.234375 35 L 66.976562 39.882812 L 80 35 L 80 18.722656 Z M 50.234375 2.441406 "/>
<path style=" stroke:none;fill-rule:nonzero;fill:rgb(6.27451%,48.627451%,25.490198%);fill-opacity:1;" d="M 18.605469 18.722656 L 50.234375 18.722656 L 50.234375 35 L 18.605469 35 Z M 18.605469 18.722656 "/>
<use xlink:href="#surface5" mask="url(#mask0)"/>
<use xlink:href="#surface8" mask="url(#mask1)"/>
<use xlink:href="#surface11" mask="url(#mask2)"/>
<use xlink:href="#surface14" mask="url(#mask3)"/>
<path style=" stroke:none;fill-rule:nonzero;fill:url(#linear0);" d="M 3.410156 17.09375 L 37.519531 17.09375 C 39.402344 17.09375 40.929688 18.429688 40.929688 20.078125 L 40.929688 49.921875 C 40.929688 51.570312 39.40625 52.90625 37.519531 52.90625 L 3.410156 52.90625 C 1.527344 52.90625 0 51.570312 0 49.921875 L 0 20.078125 C 0 18.429688 1.527344 17.09375 3.410156 17.09375 Z M 3.410156 17.09375 "/>
<path style=" stroke:none;fill-rule:nonzero;fill:rgb(100%,100%,100%);fill-opacity:1;" d="M 10.5625 44.699219 L 17.734375 34.972656 L 11.164062 25.300781 L 16.449219 25.300781 L 20.039062 31.484375 C 20.367188 32.074219 20.59375 32.511719 20.71875 32.796875 L 20.765625 32.796875 C 21 32.328125 21.25 31.875 21.507812 31.433594 L 25.34375 25.304688 L 30.199219 25.304688 L 23.457031 34.917969 L 30.367188 44.699219 L 25.203125 44.699219 L 21.058594 37.910156 C 20.863281 37.621094 20.699219 37.320312 20.5625 37.003906 L 20.503906 37.003906 C 20.382812 37.3125 20.21875 37.605469 20.023438 37.882812 L 15.757812 44.703125 Z M 10.5625 44.699219 "/>
<path style=" stroke:none;fill-rule:nonzero;fill:rgb(20%,76.862746%,50.588238%);fill-opacity:1;" d="M 76.589844 2.441406 L 50.234375 2.441406 L 50.234375 18.722656 L 80 18.722656 L 80 5.425781 C 80 3.777344 78.472656 2.441406 76.589844 2.441406 Z M 76.589844 2.441406 "/>
<path style=" stroke:none;fill-rule:nonzero;fill:rgb(6.27451%,48.627451%,25.490198%);fill-opacity:1;" d="M 50.234375 35 L 80 35 L 80 51.277344 L 50.234375 51.277344 Z M 50.234375 35 "/>
</g>
</svg>
