<?xml version="1.0" encoding="UTF-8"?>
<svg xmlns="http://www.w3.org/2000/svg" xmlns:xlink="http://www.w3.org/1999/xlink" width="80px" height="70px" viewBox="0 0 80 70" version="1.1">
<defs>
<radialGradient id="radial0" gradientUnits="userSpaceOnUse" cx="0" cy="0" fx="0" fy="0" r="1" gradientTransform="matrix(-23.400372,49.711151,-109.002344,-32.466503,26.8372,13.74275)">
<stop offset="0.06441" style="stop-color:rgb(68.235294%,49.803922%,88.627451%);stop-opacity:1;"/>
<stop offset="1" style="stop-color:rgb(0%,47.058824%,83.137255%);stop-opacity:1;"/>
</radialGradient>
<linearGradient id="linear0" gradientUnits="userSpaceOnUse" x1="17.5119" y1="37.8685" x2="12.7513" y2="29.634701" gradientTransform="matrix(2,0,0,1.590909,-8,-3.181818)">
<stop offset="0" style="stop-color:rgb(6.666667%,29.019608%,54.509804%);stop-opacity:1;"/>
<stop offset="1" style="stop-color:rgb(0%,47.058824%,83.137255%);stop-opacity:0;"/>
</linearGradient>
<radialGradient id="radial1" gradientUnits="userSpaceOnUse" cx="0" cy="0" fx="0" fy="0" r="1" gradientTransform="matrix(61.439595,-7.188237,5.969306,32.283491,12.8598,54.649479)">
<stop offset="0.133928" style="stop-color:rgb(83.529412%,61.568627%,100%);stop-opacity:1;"/>
<stop offset="1" style="stop-color:rgb(36.862745%,26.27451%,56.078431%);stop-opacity:1;"/>
</radialGradient>
<linearGradient id="linear1" gradientUnits="userSpaceOnUse" x1="40.356602" y1="25.376801" x2="35.255199" y2="32.691601" gradientTransform="matrix(2,0,0,1.590909,-8,-3.181818)">
<stop offset="0" style="stop-color:rgb(28.627451%,20.392157%,45.490196%);stop-opacity:1;"/>
<stop offset="1" style="stop-color:rgb(54.901961%,40%,72.941176%);stop-opacity:0;"/>
</linearGradient>
<radialGradient id="radial2" gradientUnits="userSpaceOnUse" cx="0" cy="0" fx="0" fy="0" r="1" gradientTransform="matrix(-48.316605,-9.745197,20.623587,-64.699473,74.110397,38.983636)">
<stop offset="0.0584996" style="stop-color:rgb(31.372549%,90.196078%,100%);stop-opacity:1;"/>
<stop offset="1" style="stop-color:rgb(26.27451%,42.745098%,80.392157%);stop-opacity:1;"/>
</radialGradient>
<linearGradient id="linear2" gradientUnits="userSpaceOnUse" x1="16.9758" y1="3.05655" x2="24.486799" y2="3.05655" gradientTransform="matrix(2,0,0,1.590909,-8,-3.181818)">
<stop offset="0" style="stop-color:rgb(17.647059%,24.705882%,50.196078%);stop-opacity:1;"/>
<stop offset="1" style="stop-color:rgb(26.27451%,42.745098%,80.392157%);stop-opacity:0;"/>
</linearGradient>
</defs>
<g id="surface1">
<path style=" stroke:none;fill-rule:nonzero;fill:url(#radial0);" d="M 32.167969 1.632812 L 31.71875 1.847656 C 31.003906 2.191406 30.332031 2.578125 29.703125 2.996094 L 31 2.273438 L 42 2.273438 L 44 14.316406 L 34 22.273438 L 24 27.800781 L 24 34.175781 C 24 38.628906 26.925781 42.757812 31.714844 45.066406 L 42.242188 50.132812 L 20 60.453125 L 15.710938 60.453125 L 7.714844 56.605469 C 2.925781 54.300781 0 50.171875 0 45.71875 L 0 24.277344 C 0 19.824219 2.925781 15.695312 7.71875 13.386719 L 31.71875 1.839844 C 31.867188 1.769531 32.019531 1.699219 32.167969 1.632812 Z M 32.167969 1.632812 "/>
<path style=" stroke:none;fill-rule:nonzero;fill:url(#linear0);" d="M 32.167969 1.632812 L 31.71875 1.847656 C 31.003906 2.191406 30.332031 2.578125 29.703125 2.996094 L 31 2.273438 L 42 2.273438 L 44 14.316406 L 34 22.273438 L 24 27.800781 L 24 34.175781 C 24 38.628906 26.925781 42.757812 31.714844 45.066406 L 42.242188 50.132812 L 20 60.453125 L 15.710938 60.453125 L 7.714844 56.605469 C 2.925781 54.300781 0 50.171875 0 45.71875 L 0 24.277344 C 0 19.824219 2.925781 15.695312 7.71875 13.386719 L 31.71875 1.839844 C 31.867188 1.769531 32.019531 1.699219 32.167969 1.632812 Z M 32.167969 1.632812 "/>
<path style=" stroke:none;fill-rule:nonzero;fill:url(#radial1);" d="M 56 27.046875 L 56 34.171875 C 56 38.625 53.074219 42.753906 48.285156 45.0625 L 24.285156 56.617188 C 19.375 58.980469 13.265625 59.066406 8.269531 56.871094 L 31.714844 68.160156 C 36.808594 70.613281 43.191406 70.613281 48.285156 68.160156 L 72.285156 56.605469 C 77.074219 54.300781 80 50.171875 80 45.71875 L 80 40.566406 L 78 38.183594 Z M 56 27.046875 "/>
<path style=" stroke:none;fill-rule:nonzero;fill:url(#linear1);" d="M 56 27.046875 L 56 34.171875 C 56 38.625 53.074219 42.753906 48.285156 45.0625 L 24.285156 56.617188 C 19.375 58.980469 13.265625 59.066406 8.269531 56.871094 L 31.714844 68.160156 C 36.808594 70.613281 43.191406 70.613281 48.285156 68.160156 L 72.285156 56.605469 C 77.074219 54.300781 80 50.171875 80 45.71875 L 80 40.566406 L 78 38.183594 Z M 56 27.046875 "/>
<path style=" stroke:none;fill-rule:nonzero;fill:url(#radial2);" d="M 72.28125 13.386719 L 48.28125 1.839844 C 43.347656 -0.535156 37.203125 -0.605469 32.195312 1.621094 L 31.71875 1.847656 C 26.925781 4.15625 24 8.285156 24 12.738281 L 24 27.828125 L 31.71875 24.113281 C 36.808594 21.664062 43.191406 21.664062 48.28125 24.113281 L 72.28125 35.660156 C 76.921875 37.894531 79.816406 41.839844 79.992188 46.132812 C 79.996094 45.996094 80 45.855469 80 45.71875 L 80 24.277344 C 80 19.824219 77.074219 15.695312 72.28125 13.386719 Z M 72.28125 13.386719 "/>
<path style=" stroke:none;fill-rule:nonzero;fill:url(#linear2);" d="M 72.28125 13.386719 L 48.28125 1.839844 C 43.347656 -0.535156 37.203125 -0.605469 32.195312 1.621094 L 31.71875 1.847656 C 26.925781 4.15625 24 8.285156 24 12.738281 L 24 27.828125 L 31.71875 24.113281 C 36.808594 21.664062 43.191406 21.664062 48.28125 24.113281 L 72.28125 35.660156 C 76.921875 37.894531 79.816406 41.839844 79.992188 46.132812 C 79.996094 45.996094 80 45.855469 80 45.71875 L 80 24.277344 C 80 19.824219 77.074219 15.695312 72.28125 13.386719 Z M 72.28125 13.386719 "/>
</g>
</svg>
