<?xml version="1.0" encoding="UTF-8"?>
<svg version="1.1" xmlns="http://www.w3.org/2000/svg" width="397" height="397">
<path d="M0 0 C131.01 0 262.02 0 397 0 C397 131.01 397 262.02 397 397 C265.99 397 134.98 397 0 397 C0 265.99 0 134.98 0 0 Z " fill="#003752" transform="translate(0,0)"/>
<path d="M0 0 C6.27 0 12.54 0 19 0 C20.67231832 1.67231832 20.12216652 3.71205741 20.12908131 5.94493443 C20.12471205 7.0144669 20.12471205 7.0144669 20.12025452 8.10560608 C20.12110894 8.85783414 20.12196337 9.6100622 20.12284368 10.38508505 C20.12450074 12.92479715 20.11897345 15.4644443 20.11352539 18.00415039 C20.11324354 19.81708271 20.11340121 21.63001514 20.1139679 23.44294739 C20.11425596 28.38075713 20.10835781 33.31854281 20.10139394 38.25634694 C20.09516186 43.41067843 20.09455672 48.56501042 20.09336853 53.71934509 C20.09025478 63.48704092 20.08204081 73.25472562 20.07201904 83.02241653 C20.06085925 94.13951812 20.05534779 105.25662022 20.05032361 116.37372601 C20.03985823 139.24915706 20.02205759 162.12457744 20 185 C13.4 185 6.8 185 0 185 C0 123.95 0 62.9 0 0 Z " fill="#F8AC19" transform="translate(142,63)"/>
<path d="M0 0 C6.27 0 12.54 0 19 0 C19 60.39 19 120.78 19 183 C12.73 183 6.46 183 0 183 C0 122.61 0 62.22 0 0 Z " fill="#27A7DC" transform="translate(233,64)"/>
<path d="M0 0 C6.6 0 13.2 0 20 0 C20 42.9 20 85.8 20 130 C13.4 130 6.8 130 0 130 C0 87.1 0 44.2 0 0 Z " fill="#F3AA1D" transform="translate(188,201)"/>
<path d="M0 0 C6.27 0 12.54 0 19 0 C20.67231832 1.67231832 20.12216652 3.71205741 20.12908131 5.94493443 C20.12471205 7.0144669 20.12471205 7.0144669 20.12025452 8.10560608 C20.12110894 8.85783414 20.12196337 9.6100622 20.12284368 10.38508505 C20.12450074 12.92479715 20.11897345 15.4644443 20.11352539 18.00415039 C20.11324354 19.81708271 20.11340121 21.63001514 20.1139679 23.44294739 C20.11425596 28.38075713 20.10835781 33.31854281 20.10139394 38.25634694 C20.09516186 43.41067843 20.09455672 48.56501042 20.09336853 53.71934509 C20.09025478 63.48704092 20.08204081 73.25472562 20.07201904 83.02241653 C20.06085925 94.13951812 20.05534779 105.25662022 20.05032361 116.37372601 C20.03985823 139.24915706 20.02205759 162.12457744 20 185 C13.4 185 6.8 185 0 185 C0 123.95 0 62.9 0 0 Z M2 2 C2 61.73 2 121.46 2 183 C7.61 183 13.22 183 19 183 C19 123.27 19 63.54 19 2 C13.39 2 7.78 2 2 2 Z " fill="#B59237" transform="translate(142,63)"/>
<path d="M0 0 C0.66 0 1.32 0 2 0 C2.20049587 23.93868693 2.38382247 47.87745172 2.54658794 71.81642628 C2.62256145 82.93116396 2.70419908 94.04580664 2.79907227 105.16040039 C2.88172855 114.84542969 2.9538581 124.5304697 3.01323253 134.21567076 C3.04505515 139.34613459 3.08222618 144.47643629 3.13199425 149.60676003 C3.17863755 154.43208956 3.21124286 159.25730705 3.2329216 164.08281136 C3.24339626 165.85701602 3.2590704 167.6311985 3.28024101 169.40530777 C3.30830998 171.82165869 3.31792694 174.2373924 3.32279968 176.65388489 C3.34174389 177.71467883 3.34174389 177.71467883 3.36107081 178.79690295 C3.35020843 181.61930238 3.29989454 183.55023481 1.71029377 185.93422985 C-1.26615176 187.7890029 -4.60526762 187.42936404 -8 187.375 C-8.72445312 187.38660156 -9.44890625 187.39820313 -10.1953125 187.41015625 C-14.67467721 187.38536272 -15.69815769 187.30184231 -19 184 C-12.73 184 -6.46 184 0 184 C0 123.28 0 62.56 0 0 Z " fill="#075176" transform="translate(252,63)"/>
<path d="M0 0 C6.27 0 12.54 0 19 0 C19 6.93 19 13.86 19 21 C12.73 21 6.46 21 0 21 C0 14.07 0 7.14 0 0 Z " fill="#F9AB17" transform="translate(188,155)"/>
<path d="M0 0 C5.94 0 11.88 0 18 0 C18 40.26 18 80.52 18 122 C17.34 122 16.68 122 16 122 C15.14001283 119.02370908 14.87806634 116.38765419 14.88647461 113.29394531 C14.8865451 112.35184204 14.8866156 111.40973877 14.88668823 110.43908691 C14.89185455 109.41246948 14.89702087 108.38585205 14.90234375 107.328125 C14.90380402 106.24156616 14.90526428 105.15500732 14.9067688 104.03552246 C14.91057452 101.67614284 14.9166908 99.31676609 14.92483521 96.95739746 C14.93758259 93.22582427 14.94411026 89.49428656 14.94897461 85.76269531 C14.96138483 77.1682563 14.98307142 68.57384895 15.00520325 59.97943115 C15.02699029 51.47567157 15.04485354 42.97192158 15.05593872 34.46813965 C15.06243355 30.78765636 15.07494172 27.10722415 15.08764648 23.42675781 C15.0912784 21.17513067 15.0946302 18.92350304 15.09765625 16.671875 C15.10282257 15.64525757 15.10798889 14.61864014 15.11331177 13.56091309 C15.11338226 12.61880981 15.11345276 11.67670654 15.11352539 10.70605469 C15.115746 9.88901062 15.11796661 9.07196655 15.12025452 8.23016357 C15.05327949 5.6749325 15.05327949 5.6749325 14 2 C7.07 1.505 7.07 1.505 0 1 C0 0.67 0 0.34 0 0 Z " fill="#F3AD23" transform="translate(189,202)"/>
<path d="M0 0 C0.33 0 0.66 0 1 0 C1 42.9 1 85.8 1 130 C7.6 130 14.2 130 21 130 C21 130.66 21 131.32 21 132 C17.68794116 132.19592461 14.37534146 132.38032746 11.0625 132.5625 C10.11697266 132.61857422 9.17144531 132.67464844 8.19726562 132.73242188 C6.84858398 132.80493164 6.84858398 132.80493164 5.47265625 132.87890625 C4.64000244 132.9260376 3.80734863 132.97316895 2.94946289 133.02172852 C1 133 1 133 0 132 C-0.09622036 130.29174312 -0.12187628 128.57947886 -0.12025452 126.86851501 C-0.12162918 125.75647202 -0.12300385 124.64442902 -0.12442017 123.49868774 C-0.12082489 122.26798553 -0.11722961 121.03728333 -0.11352539 119.76928711 C-0.11367142 118.48166977 -0.11381744 117.19405243 -0.1139679 115.86741638 C-0.11425586 112.3262524 -0.10835936 108.78512201 -0.10139394 105.24396586 C-0.09516017 101.54705012 -0.09455658 97.85013369 -0.09336853 94.1532135 C-0.09025528 87.14796101 -0.08204199 80.14272405 -0.07201904 73.13747841 C-0.0608577 65.16421124 -0.0553474 57.19094335 -0.05032361 49.21767032 C-0.03985937 32.81177111 -0.02226005 16.40588753 0 0 Z " fill="#32432D" transform="translate(187,201)"/>
<path d="M0 0 C6.27 0 12.54 0 19 0 C19 6.93 19 13.86 19 21 C12.73 21 6.46 21 0 21 C0 14.07 0 7.14 0 0 Z M1 2 C1 7.94 1 13.88 1 20 C6.28 20 11.56 20 17 20 C17.020625 17.586875 17.04125 15.17375 17.0625 12.6875 C17.071604 11.93170654 17.08070801 11.17591309 17.09008789 10.3972168 C17.10287966 7.3160507 16.98131601 4.94394804 16 2 C11.05 2 6.1 2 1 2 Z " fill="#DDB045" transform="translate(188,155)"/>
<path d="M0 0 C6.93 0 13.86 0 21 0 C21 7.59 21 15.18 21 23 C19.02 23.99 19.02 23.99 17 25 C16.67 24.67 16.34 24.34 16 24 C13.30764224 23.76321284 10.63501844 23.57801975 7.9375 23.4375 C6.79958008 23.37272461 6.79958008 23.37272461 5.63867188 23.30664062 C3.75934562 23.20026367 1.87969756 23.09960066 0 23 C0 22.67 0 22.34 0 22 C6.27 22 12.54 22 19 22 C19 15.07 19 8.14 19 1 C12.73 1 6.46 1 0 1 C0 0.67 0 0.34 0 0 Z " fill="#2E3E27" transform="translate(188,154)"/>
<path d="M0 0 C1.98 0 3.96 0 6 0 C6 0.66 6 1.32 6 2 C8.97 2.495 8.97 2.495 12 3 C12 9.93 12 16.86 12 24 C11.67 24 11.34 24 11 24 C10.67 18.06 10.34 12.12 10 6 C7.525 7.485 7.525 7.485 5 9 C4 8 4 8 3.9375 5.4375 C3.958125 4.633125 3.97875 3.82875 4 3 C2.68 3 1.36 3 0 3 C0 2.01 0 1.02 0 0 Z " fill="#103C43" transform="translate(176,152)"/>
</svg>
