<svg version="1.2" xmlns="http://www.w3.org/2000/svg" viewBox="0 0 1538 1152" width="1538" height="1152">
	<title>SUMICHEM</title>
	<style>
		.s0 { fill: #ff2e17 } 
	</style>
	<path class="s0" d="m839.3 0.4l-69.6 52.2-69.5-52.2-279.7 208.9 69.6 52.3-139.1 104.5-71-52.3-279.7 209 71 52.2-71 52.3 279.7 210.4 71-52.2 139.1 103-69.6 53.7 279.7 209 69.5-52.2 69.6 52.2 279.6-209-69.5-53.7 139.1-103 69.5 52.2 279.7-210.4-69.6-52.3 69.6-52.2-279.7-209-69.5 52.3-139.1-104.5 69.5-52.3zm-210.1 576.2l140.6-106 139.1 106-139.1 104.5z"/>
</svg>